<?xml version="1.0" encoding="utf-8"?>
<!-- Generator: Adobe Illustrator 16.0.0, SVG Export Plug-In . SVG Version: 6.00 Build 0)  -->
<!DOCTYPE svg PUBLIC "-//W3C//DTD SVG 1.1//EN" "http://www.w3.org/Graphics/SVG/1.1/DTD/svg11.dtd">
<svg version="1.1" xmlns="http://www.w3.org/2000/svg" xmlns:xlink="http://www.w3.org/1999/xlink" x="0px" y="0px" width="600px"
	 height="600px" viewBox="0 0 600 600" enable-background="new 0 0 600 600" xml:space="preserve">
<g id="Layer_3">
	<circle fill="#5A0B4D" stroke="#000000" stroke-miterlimit="10" cx="300" cy="300" r="295"/>
</g>
<g id="Layer_1" display="none">
	<path display="inline" fill="#FFFFFF" d="M300,50C161.929,50,50,161.929,50,300s111.929,250,250,250s250-111.929,250-250
		S438.071,50,300,50z M300,532.189c-129.787,0-235-105.214-235-235c0-129.787,105.213-235,235-235c129.786,0,235,105.213,235,235
		C535,426.976,429.786,532.189,300,532.189z"/>
</g>
<g id="Layer_2">
	<path fill="#FFFFFF" d="M454.641,505.607c-16.223-28.691-32.393-57.511-44.844-87.996
		c-21.188-51.859-30.958-105.584-24.943-162.054c3.224-30.307,9.191-59.354,20.888-87.583c4.609-11.134,10.612-15.916,22.151-17.084
		c12.674-1.285,21.116-16.246,16.187-26.582c-4.151-8.706-24.762-17.996-34.888-14.616c-10.847,3.618-14.112,12.799-14.381,23.563
		c-0.427,16.956-5.395,19.635-21.734,13.571c-51.961-19.287-100.67-45.352-149.412-71.321c-7.037-3.75-10.161-2.813-14.844,3.687
		c-41.746,75.416-67.86,158.45-68.874,219.778c-1.664,100.637,10.173,150.656,28.996,221.689c0.974,3.157,2.505,6.825,6.685,5.885
		c4.193-0.941,5.633-4.687,5.342-8.673c-0.175-2.419-1.37-4.746-1.926-7.155c-4.18-18.054-7.894-36.137-10.792-54.509
		c-4.973-31.501-6.17-63.244-9.004-94.87c-0.886-9.858-3.593-21.742,9.658-26.621c21.076-7.762,40.193-19.102,58.942-31.182
		c15.23-9.813,30.013-10.009,46.708-1.976c24.467,11.777,48.365,25.092,74.734,32.644c6.388,1.829,9.842,6.318,11.906,12.976
		c16.385,52.905,42.09,101.301,72.56,147.279c4.049,6.114,7.521,11.199-1.127,16.156c-2.475,1.419-3.103,3.937-0.703,6.18
		c6.944,6.482,16.275,9.098,23.979,5.423C464.81,517.969,457.607,510.854,454.641,505.607z M336.845,297.326
		c-15.085-5.389-31.182-9.093-44.91-16.915c-30.403-17.317-56.285-7.953-81.898,9.66c-13.563,9.328-29.491,14.49-42.578,24.95
		c-7.021,5.614-12.088,1.277-11.095-7.208c4.625-39.588,8.081-79.171,21.539-117.448c9.562-27.2,20.579-53.762,30.578-80.746
		c4.976-13.437,9.604-15.986,22.252-10.042c15.96,7.499,31.441,16.015,47.192,23.964c16.493,8.322,32.849,16.968,49.665,24.577
		c13.342,6.038,20.214,14.77,17.828,29.93c-0.822,5.249-0.132,10.735-0.132,19.679c-5.766,27.235,2.258,57.244,5.128,87.54
		C351.604,297.786,348.324,301.424,336.845,297.326z"/>
</g>
</svg>
