<?xml version="1.0" encoding="utf-8"?>
<!-- Generator: Adobe Illustrator 16.0.0, SVG Export Plug-In . SVG Version: 6.00 Build 0)  -->
<!DOCTYPE svg PUBLIC "-//W3C//DTD SVG 1.1//EN" "http://www.w3.org/Graphics/SVG/1.1/DTD/svg11.dtd">
<svg version="1.1" xmlns="http://www.w3.org/2000/svg" xmlns:xlink="http://www.w3.org/1999/xlink" x="0px" y="0px" width="600px"
	 height="600px" viewBox="0 0 600 600" enable-background="new 0 0 600 600" xml:space="preserve">
<g id="Layer_3" opacity="0">
</g>
<g id="Layer_1">
	<path fill="#828282" d="M300,50C161.929,50,50,161.929,50,300s111.929,250,250,250s250-111.929,250-250S438.071,50,300,50z
		 M300,532.189c-129.787,0-235-105.214-235-235c0-129.787,105.213-235,235-235c129.786,0,235,105.213,235,235
		C535,426.976,429.786,532.189,300,532.189z"/>
</g>
<g id="Layer_2">
	<path fill="#828282" d="M415.143,461.688c-12.759-22.563-25.475-45.226-35.267-69.199c-16.661-40.782-24.345-83.031-19.615-127.438
		c2.535-23.833,7.229-46.676,16.426-68.875c3.625-8.756,8.347-12.516,17.421-13.435c9.967-1.01,16.605-12.775,12.729-20.904
		c-3.265-6.846-19.473-14.152-27.437-11.494c-8.528,2.845-11.097,10.065-11.309,18.529c-0.335,13.334-4.241,15.441-17.091,10.672
		c-40.861-15.167-79.167-35.665-117.498-56.087c-5.534-2.949-7.991-2.212-11.673,2.899C189,185.664,168.464,250.961,167.667,299.189
		c-1.308,79.141,8,118.475,22.802,174.335c0.766,2.482,1.97,5.367,5.257,4.628c3.297-0.74,4.429-3.686,4.201-6.82
		c-0.138-1.902-1.077-3.732-1.515-5.627c-3.287-14.197-6.207-28.418-8.486-42.865c-3.911-24.772-4.852-49.735-7.081-74.605
		c-0.696-7.753-2.825-17.099,7.595-20.936c16.574-6.103,31.608-15.021,46.352-24.521c11.978-7.717,23.602-7.871,36.731-1.553
		c19.241,9.261,38.035,19.731,58.771,25.67c5.023,1.438,7.739,4.969,9.362,10.204c12.886,41.604,33.1,79.662,57.062,115.819
		c3.183,4.809,5.914,8.808-0.887,12.706c-1.945,1.115-2.44,3.096-0.553,4.858c5.46,5.099,12.799,7.155,18.857,4.265
		C423.138,471.41,417.475,465.815,415.143,461.688z M322.508,297.897c-11.863-4.237-24.522-7.15-35.317-13.301
		c-23.909-13.619-44.263-6.254-64.405,7.596c-10.666,7.335-23.191,11.395-33.482,19.621c-5.521,4.415-9.506,1.004-8.725-5.669
		c3.638-31.132,6.355-62.259,16.938-92.36c7.519-21.39,16.183-42.278,24.046-63.499c3.913-10.566,7.553-12.571,17.499-7.896
		c12.551,5.897,24.726,12.594,37.112,18.846c12.97,6.544,25.833,13.344,39.057,19.327c10.492,4.748,15.896,11.615,14.02,23.537
		c-0.647,4.127-0.104,8.441-0.104,15.476c-4.533,21.417,1.775,45.016,4.033,68.84C334.113,298.259,331.535,301.12,322.508,297.897z"
		/>
</g>
</svg>
